{"title":"Talk to Her.2002 aka Hable con ella[x264][AC3(5.1)]Nordic_Sub.mk","uid":5237192,"size":1790097472,"categoryP":"video","categoryS":"movies","magnet":"?xt=urn:btih:2d72ce5e6b8a43bdbad9ee9b96e0c26fca5b4530&amp;dn=Talk+to+Her.2002+aka+Hable+con+ella%5Bx264%5D%5BAC3%285.1%29%5DNordic_Sub.mk&amp;tr=udp%3A%2F%2Ftracker.openbittorrent.com%3A80&amp;tr=udp%3A%2F%2Fopen.demonii.com%3A1337&amp;tr=udp%3A%2F%2Ftracker.coppersurfer.tk%3A6969&amp;tr=udp%3A%2F%2Fexodus.desync.com%3A6969","seeders":1,"leechers":0,"uploader":"Zen_Bud","files":-1,"time":1261584577,"description":"General\nComplete name                    : Hable con ella.mkv\nFormat                           : Matroska\nFile size                        : 1.67 GiB\nDuration                         : 1h 48mn\nOverall bit rate                 : 2 198 Kbps\n\n\nVideo\nID                               : 1\nFormat                           : AVC\nCodec ID                         : V_MPEG4/ISO/AVC\nDuration                         : 1h 48mn\nBit rate                         : 1 706 Kbps\nNominal bit rate                 : 1 737 Kbps\nWidth                            : 720 pixels\nHeight                           : 436 pixels\nDisplay aspect ratio             : 2.35:1\nFrame rate                       : 25.000 fps\nResolution                       : 8 bits\nColorimetry                      : 4:2:0\nScan type                        : Progressive\nBits/(Pixel*Frame)               : 0.217\nStream size                      : 1.29 GiB (78%)\nWriting library                  : x264 core 79\n\n\nAudio\nID                               : 2\nFormat                           : AC-3\nFormat/Info                      : Audio Coding 3\nCodec ID                         : A_AC3\nDuration                         : 1h 48mn\nBit rate mode                    : Constant\nBit rate                         : 448 Kbps\nChannel(s)                       : 6 channels\nChannel positions                : Front: L C R, Surround: L R, LFE\nSampling rate                    : 48.0 KHz\nStream size                      : 348 MiB (20%)\nLanguage                         : Spanish\n\nText #1\nLanguage                         : Danish\n\nText #2\nLanguage                         : Swedish\n\nText #3\nLanguage                         : Norwegian\n\nText #4\nLanguage                         : Finnish\n\n\n","torrent":{"xt":"urn:btih:2d72ce5e6b8a43bdbad9ee9b96e0c26fca5b4530","amp;dn":"Talk+to+Her.2002+aka+Hable+con+ella%5Bx264%5D%5BAC3%285.1%29%5DNordic_Sub.mk","amp;tr":["udp%3A%2F%2Ftracker.openbittorrent.com%3A80","udp%3A%2F%2Fopen.demonii.com%3A1337","udp%3A%2F%2Ftracker.coppersurfer.tk%3A6969","udp%3A%2F%2Fexodus.desync.com%3A6969"],"infoHash":"2d72ce5e6b8a43bdbad9ee9b96e0c26fca5b4530","infoHashBuffer":{"type":"Buffer","data":[45,114,206,94,107,138,67,189,186,217,238,155,150,224,194,111,202,91,69,48]},"announce":[],"urlList":[]}}